HIERARCHY
ROOT Joint1
{
	OFFSET 0.000000 0.000000 0.000000
	CHANNELS 6 Xposition Yposition Zposition Xrotation Yrotation Zrotation
	JOINT Joint2
	{
		OFFSET -0.000000 0.000000 1.456275
		CHANNELS 6 Xposition Yposition Zposition Xrotation Yrotation Zrotation
		JOINT Joint3
		{
			OFFSET -0.000000 0.000002 1.471446
			CHANNELS 6 Xposition Yposition Zposition Xrotation Yrotation Zrotation
			JOINT Joint4
			{
				OFFSET 0.625745 0.000000 0.917755
				CHANNELS 6 Xposition Yposition Zposition Xrotation Yrotation Zrotation
				JOINT Joint5
				{
					OFFSET -0.629534 0.000001 0.940221
					CHANNELS 6 Xposition Yposition Zposition Xrotation Yrotation Zrotation
					JOINT Joint6
					{
						OFFSET -0.000001 0.113772 1.960660
						CHANNELS 6 Xposition Yposition Zposition Xrotation Yrotation Zrotation
						JOINT Joint7
						{
							OFFSET -0.669733 -0.113771 0.388340
							CHANNELS 6 Xposition Yposition Zposition Xrotation Yrotation Zrotation
							End Site
							{
								OFFSET 0.005509 0.005509 0.438980
							}
						}
					}
				}
			}
		}
	}
}
MOTION
Frames: 22
Frame Time: 0.041667
0.000000 0.000000 0.000000 -0.000000 1.019410 -0.020988 -0.000000 -0.000000 1.456275 -0.000000 -44.961178 0.000000 -0.000000 0.000002 1.471446 0.000000 -1.133459 -0.018540 0.625744 0.000000 0.917755 0.000004 135.010519 -0.000001 -0.629534 0.000001 0.940221 0.000000 1.709737 -0.010462 -0.000001 0.113772 1.960661 -88.320350 89.988630 -0.010704 -0.669733 -0.113771 0.388340 -0.704812 3.566197 134.943924 
0.000000 0.000000 0.000000 -0.000000 1.019410 -0.084327 -0.000000 -0.000000 1.456275 0.000000 -44.908740 0.000000 -0.000000 0.000002 1.471446 0.000000 -1.133455 0.023446 0.625745 0.000000 0.917755 0.000004 134.976586 -0.000001 -0.629533 0.000001 0.940221 0.000000 1.709736 -0.009264 -0.000001 0.113772 1.960660 -88.296232 90.025151 0.004841 -0.669733 -0.113771 0.388339 -0.703448 3.566195 134.867112 
0.000000 0.000000 0.000000 -0.000000 1.019410 -0.199466 -0.000000 -0.000000 1.456275 0.000000 -44.813424 0.000000 -0.000000 0.000002 1.471446 -0.000000 -1.133461 0.099768 0.625744 0.000000 0.917755 0.000004 134.914883 -0.000001 -0.629534 0.000001 0.940221 0.000000 1.709737 -0.007085 -0.000001 0.113772 1.960661 -88.301915 90.091541 0.001283 -0.669733 -0.113771 0.388340 -0.700967 3.566187 134.727462 
0.000000 0.000000 0.000000 -0.000000 1.019410 -0.374238 -0.000000 -0.000000 1.456275 -0.000000 -44.668730 0.000000 -0.000000 0.000002 1.471446 -0.000000 -1.133463 0.215620 0.625744 0.000000 0.917755 0.000004 134.821241 -0.000001 -0.629534 0.000001 0.940221 0.000000 1.709737 -0.003779 -0.000000 0.113772 1.960660 -88.302940 90.192300 0.000643 -0.669733 -0.113771 0.388340 -0.697203 3.566162 134.515494 
0.000000 0.000000 0.000000 -0.000000 1.019410 -0.616476 -0.000000 0.000000 1.456275 0.000000 -44.468186 -0.000000 -0.000000 0.000002 1.471446 -0.000000 -1.133459 0.376193 0.625744 0.000000 0.917755 0.000004 134.691467 -0.000001 -0.629533 0.000001 0.940221 -0.000000 1.709736 0.000804 -0.000000 0.113772 1.960660 -88.303329 90.331970 0.000372 -0.669733 -0.113771 0.388341 -0.691984 3.566104 134.221714 
0.000000 0.000000 0.000000 -0.000000 1.019410 -0.934014 -0.000000 0.000000 1.456275 0.000000 -44.205302 -0.000000 -0.000000 0.000002 1.471446 0.000000 -1.133459 0.586680 0.625744 0.000000 0.917755 0.000004 134.521313 -0.000001 -0.629534 0.000001 0.940221 0.000000 1.709736 0.006811 -0.000001 0.113772 1.960660 -88.303520 90.515047 0.000232 -0.669733 -0.113771 0.388340 -0.685145 3.565988 133.836601 
0.000000 0.000000 0.000000 -0.000000 1.019410 -1.334686 -0.000000 0.000000 1.456275 0.000000 -43.873594 -0.000000 -0.000000 0.000002 1.471446 0.000000 -1.133461 0.852274 0.625745 0.000000 0.917755 0.000004 134.306654 -0.000001 -0.629534 0.000001 0.940221 0.000000 1.709736 0.014392 -0.000001 0.113772 1.960660 -88.303636 90.746057 0.000169 -0.669733 -0.113771 0.388340 -0.676517 3.565777 133.350674 
0.000000 0.000000 0.000000 -0.000000 1.019410 -1.826324 -0.000000 0.000000 1.456275 -0.000000 -43.466573 -0.000000 -0.000000 0.000002 1.471446 -0.000000 -1.133463 1.178167 0.625744 0.000000 0.917755 0.000003 134.043200 -0.000001 -0.629534 0.000001 0.940221 0.000000 1.709736 0.023693 -0.000000 0.113772 1.960661 -88.303705 91.029524 0.000105 -0.669733 -0.113771 0.388340 -0.665932 3.565418 132.754412 
0.000000 0.000000 0.000000 -0.000000 1.019410 -2.416761 -0.000000 0.000000 1.456275 0.000000 -42.977760 0.000000 -0.000000 0.000002 1.471446 0.000000 -1.133461 1.569552 0.625745 0.000000 0.917755 0.000004 133.726839 -0.000001 -0.629534 0.000001 0.940221 -0.000000 1.709736 0.034863 0.000000 0.113772 1.960660 -88.303746 91.369947 0.000094 -0.669733 -0.113771 0.388340 -0.653226 3.564841 132.038348 
0.000000 0.000000 0.000000 -0.000000 1.019410 -3.113832 -0.000000 -0.000000 1.456275 -0.000000 -42.400674 -0.000000 -0.000000 0.000002 1.471446 -0.000000 -1.133457 2.031620 0.625744 0.000000 0.917755 0.000004 133.353337 -0.000001 -0.629534 0.000001 0.940221 0.000000 1.709736 0.048051 -0.000001 0.113772 1.960661 -88.303773 91.771849 0.000060 -0.669733 -0.113771 0.388340 -0.638236 3.563956 131.192949 
0.000000 0.000000 0.000000 -0.000000 1.019410 -3.925367 -0.000000 0.000000 1.456275 -0.000000 -41.728819 -0.000000 -0.000000 0.000002 1.471446 -0.000000 -1.133462 2.569565 0.625744 0.000000 0.917755 0.000004 132.918500 -0.000001 -0.629534 0.000001 0.940221 0.000000 1.709737 0.063404 -0.000001 0.113772 1.960661 -88.303793 92.239751 0.000062 -0.669733 -0.113771 0.388341 -0.620804 3.562649 130.208732 
0.000000 0.000000 0.000000 -0.000000 1.019410 -4.849458 -0.000000 -0.000000 1.456275 -0.000001 -40.963780 0.000000 -0.000000 0.000002 1.471446 0.000000 -1.133458 3.182119 0.625745 0.000000 0.917755 0.000003 132.423352 -0.000001 -0.629534 0.000001 0.940221 -0.000000 1.709737 0.080887 -0.000001 0.113772 1.960660 -88.303807 92.772547 0.000048 -0.669733 -0.113771 0.388340 -0.600985 3.560796 129.088021 
0.000000 0.000000 0.000000 -0.000000 1.019410 -5.845206 -0.000000 -0.000000 1.456275 -0.000000 -40.139420 -0.000000 -0.000000 0.000002 1.471446 0.000000 -1.133463 3.842174 0.625744 0.000000 0.917755 0.000004 131.889819 -0.000001 -0.629534 0.000001 0.940221 0.000000 1.709736 0.099725 -0.000001 0.113772 1.960660 -88.303834 93.346652 0.000035 -0.669733 -0.113771 0.388341 -0.579674 3.558365 127.880402 
0.000000 0.000000 0.000000 -0.000000 1.019410 -6.861974 -0.000000 -0.000000 1.456275 -0.000000 -39.297657 0.000000 -0.000000 0.000002 1.471446 0.000000 -1.133460 4.516159 0.625745 0.000000 0.917755 0.000004 131.345016 -0.000001 -0.629534 0.000001 0.940221 0.000000 1.709736 0.118961 -0.000001 0.113772 1.960660 -88.303834 93.932887 0.000023 -0.669733 -0.113771 0.388340 -0.557970 3.555424 126.647294 
0.000000 0.000000 0.000000 -0.000000 1.019410 -7.849121 -0.000000 0.000000 1.456275 -0.000000 -38.480418 0.000000 -0.000000 0.000002 1.471446 0.000000 -1.133457 5.170511 0.625744 0.000000 0.917755 0.000005 130.816086 -0.000001 -0.629534 0.000001 0.940221 -0.000001 1.709736 0.137637 -0.000001 0.113772 1.960661 -88.303855 94.502033 0.000025 -0.669733 -0.113771 0.388339 -0.536965 3.552120 125.450112 
0.000000 0.000000 0.000000 -0.000000 1.019410 -8.776068 -0.000000 -0.000000 1.456275 0.000001 -37.713019 0.000000 -0.000000 0.000002 1.471446 0.000000 -1.133459 5.784959 0.625744 0.000000 0.917755 0.000003 130.319408 -0.000001 -0.629534 0.000001 0.940221 -0.000001 1.709736 0.155174 -0.000001 0.113772 1.960661 -88.303855 95.036468 0.000027 -0.669733 -0.113771 0.388340 -0.517308 3.548622 124.325945 
0.000000 0.000000 0.000000 -0.000000 1.019410 -9.692507 -0.000000 0.000000 1.456275 0.000000 -36.954315 -0.000001 -0.000000 0.000002 1.471446 0.000000 -1.133456 6.392441 0.625744 0.000000 0.917754 0.000004 129.828386 -0.000001 -0.629533 0.000001 0.940221 0.000000 1.709736 0.172512 -0.000001 0.113772 1.960661 -88.303848 95.564858 0.000022 -0.669733 -0.113771 0.388340 -0.497944 3.544786 123.214523 
0.000000 0.000000 0.000000 -0.000000 1.019410 -10.668189 -0.000000 0.000000 1.456275 0.000000 -36.146573 -0.000000 -0.000000 0.000002 1.471446 0.000000 -1.133460 7.039195 0.625745 0.000000 0.917755 0.000005 129.305590 -0.000001 -0.629534 0.000001 0.940221 -0.000000 1.709737 0.190970 -0.000001 0.113772 1.960661 -88.303848 96.127399 0.000019 -0.669733 -0.113771 0.388340 -0.477416 3.540289 122.031274 
0.000000 0.000000 0.000000 -0.000000 1.019410 -11.772873 -0.000000 -0.000000 1.456275 -0.000000 -35.232021 0.000000 -0.000000 0.000002 1.471446 -0.000000 -1.133460 7.771458 0.625745 0.000000 0.917755 0.000004 128.713685 -0.000001 -0.629534 0.000001 0.940221 -0.000000 1.709737 0.211869 -0.000001 0.113772 1.960661 -88.303855 96.764314 0.000018 -0.669733 -0.113771 0.388340 -0.454291 3.534688 120.691560 
0.000000 0.000000 0.000000 -0.000000 1.019410 -13.044387 -0.000000 -0.000000 1.456275 0.000000 -34.179359 -0.000001 -0.000000 0.000002 1.471446 -0.000000 -1.133461 8.614311 0.625745 0.000000 0.917755 0.000003 128.032388 -0.000001 -0.629534 0.000001 0.940220 0.000001 1.709736 0.235925 -0.000001 0.113772 1.960661 -88.303855 97.497426 0.000016 -0.669733 -0.113771 0.388341 -0.427845 3.527577 119.149563 
0.000000 0.000000 0.000000 -0.000000 1.019410 -14.392892 -0.000000 -0.000000 1.456275 -0.000000 -33.062955 -0.000000 -0.000000 0.000002 1.471446 0.000000 -1.133457 9.508197 0.625744 0.000000 0.917755 0.000004 127.309836 -0.000001 -0.629534 0.000001 0.940221 -0.000000 1.709737 0.261437 -0.000001 0.113772 1.960660 -88.303855 98.274920 0.000016 -0.669733 -0.113771 0.388340 -0.400020 3.519260 117.514197 
0.000000 0.000000 0.000000 -0.000000 1.019410 -15.696623 -0.000000 -0.000000 1.456275 -0.000002 -31.983621 0.000002 -0.000000 0.000002 1.471446 -0.000000 -1.133458 10.372403 0.625744 0.000000 0.917754 0.000003 126.611271 -0.000001 -0.629534 0.000001 0.940221 -0.000001 1.709737 0.286103 -0.000001 0.113772 1.960661 -88.303855 99.026603 0.000012 -0.669733 -0.113771 0.388342 -0.373353 3.510471 115.933158 
